# xmcd
#
# Track frame offsets:
#	150
#	16864
#	33898
#	50357
#	64396
#	77681
#	94721
#	112130
#	125523
#	146394
#	162611
#	176421
#	188538
#	206146
#	219550
#	233383
#	249042
#	264609
#	281201
#	294868
#	310021
#
# Disc length: 4324 seconds
# Revision: 0
# Processed by: cddbd v1.5.2PL0 Copyright (c) Steve Scherf et al.
# Submitted via: dBpowerAMP V12.0
#
DISCID=2310e215
DTITLE=Various Artist - Country Radio February 2010
DYEAR=2010
DGENRE=Country
TTITLE0=Billy Currington - That's How Country Boys Roll
TTITLE1=Rascal Flatts - Unstoppable
TTITLE2=Taylor Swift - Fearless
TTITLE3=Hey Romeo - Searchin For You
TTITLE4=Steven Lee Olsen - Make Hay While The Sun Shines
TTITLE5=Bucky Covington - Gotta Be Somebody
TTITLE6=Blue Rodeo - Arizona Dust
TTITLE7=Band Perry The - Hip To My Heart
TTITLE8=Lyle Lovett - Natural Forces
TTITLE9=Jonathan Singleton and The Grove - Look Who's Back In Love
TTITLE10=Danny Gokey - My Best Days Are Ahead Of Me
TTITLE11=Marlee Scott - 5 O'Clock Dance
TTITLE12=Terri Clark - A Million Ways To Run
TTITLE13=Jewel - Stay Here Forever
TTITLE14=Jack Ingram - Free
TTITLE15=Lady Antebellum - American Honey
TTITLE16=Jason Greeley - Goodbye Jersey
TTITLE17=Chad Brownlee - The Best That I Can Be
TTITLE18=Love and Theft - Dancing In Circles
TTITLE19=Greg Hanna - It's A Man's Job
TTITLE20=Jason Greeley - Usually
EXTD=
EXTT0=
EXTT1=
EXTT2=
EXTT3=
EXTT4=
EXTT5=
EXTT6=
EXTT7=
EXTT8=
EXTT9=
EXTT10=
EXTT11=
EXTT12=
EXTT13=
EXTT14=
EXTT15=
EXTT16=
EXTT17=
EXTT18=
EXTT19=
EXTT20=
PLAYORDER=
